HIERARCHY
ROOT Hips
{
	OFFSET -8.665500 -1.496397 44.816700
	CHANNELS 6 Xposition Yposition Zposition Zrotation Xrotation Yrotation
	JOINT Chest
	{
		OFFSET -0.698600 0.806100 5.350899
		CHANNELS 6 Xposition Yposition Zposition Zrotation Xrotation Yrotation
		JOINT Chest2
		{
			OFFSET 0.000000 0.000000 4.409100
			CHANNELS 6 Xposition Yposition Zposition Zrotation Xrotation Yrotation
			JOINT Neck
			{
				OFFSET 0.000000 0.000001 10.248299
				CHANNELS 6 Xposition Yposition Zposition Zrotation Xrotation Yrotation
				JOINT Head
				{
					OFFSET 0.000000 0.000000 2.173897
					CHANNELS 6 Xposition Yposition Zposition Zrotation Xrotation Yrotation
					End Site
					{
						OFFSET 0.000000 0.000001 9.966400
					}
				}
			}
			JOINT LeftCollar
			{
				OFFSET 2.100600 -0.520900 6.016098
				CHANNELS 6 Xposition Yposition Zposition Zrotation Xrotation Yrotation
				JOINT LeftShoulder
				{
					OFFSET 5.536700 0.000000 0.000000
					CHANNELS 6 Xposition Yposition Zposition Zrotation Xrotation Yrotation
					JOINT LeftElbow
					{
						OFFSET 0.000000 -0.000001 -12.362099
						CHANNELS 6 Xposition Yposition Zposition Zrotation Xrotation Yrotation
						JOINT LeftWrist
						{
							OFFSET 0.000000 -0.000001 -10.273201
							CHANNELS 6 Xposition Yposition Zposition Zrotation Xrotation Yrotation
							End Site
							{
								OFFSET 0.000000 -0.000000 -2.173901
							}
						}
					}
				}
			}
			JOINT RightCollar
			{
				OFFSET -2.899500 -1.655900 6.981701
				CHANNELS 6 Xposition Yposition Zposition Zrotation Xrotation Yrotation
				JOINT RightShoulder
				{
					OFFSET -4.387501 0.000000 0.000000
					CHANNELS 6 Xposition Yposition Zposition Zrotation Xrotation Yrotation
					JOINT RightElbow
					{
						OFFSET 0.000000 -0.000001 -10.858101
						CHANNELS 6 Xposition Yposition Zposition Zrotation Xrotation Yrotation
						JOINT RightWrist
						{
							OFFSET 0.000000 -0.000001 -12.079601
							CHANNELS 6 Xposition Yposition Zposition Zrotation Xrotation Yrotation
							End Site
							{
								OFFSET 0.000000 0.000000 -2.173901
							}
						}
					}
				}
			}
		}
	}
	JOINT LeftHip
	{
		OFFSET 2.190800 0.073900 -2.522499
		CHANNELS 6 Xposition Yposition Zposition Zrotation Xrotation Yrotation
		JOINT LeftKnee
		{
			OFFSET 0.000000 -0.000002 -20.305000
			CHANNELS 6 Xposition Yposition Zposition Zrotation Xrotation Yrotation
			JOINT LeftAnkle
			{
				OFFSET 0.000000 -0.000001 -16.771700
				CHANNELS 6 Xposition Yposition Zposition Zrotation Xrotation Yrotation
				End Site
				{
					OFFSET 0.000000 -8.738000 0.000001
				}
			}
		}
	}
	JOINT RightHip
	{
		OFFSET -2.029500 0.054300 -2.705200
		CHANNELS 6 Xposition Yposition Zposition Zrotation Xrotation Yrotation
		JOINT RightKnee
		{
			OFFSET 0.000000 -0.000002 -20.030399
			CHANNELS 6 Xposition Yposition Zposition Zrotation Xrotation Yrotation
			JOINT RightAnkle
			{
				OFFSET 0.000000 -0.000001 -17.032700
				CHANNELS 6 Xposition Yposition Zposition Zrotation Xrotation Yrotation
				End Site
				{
					OFFSET 0.000000 -8.823600 0.000001
				}
			}
		}
	}
}
MOTION
Frames: 4
Frame Time: 0.041667
22.833698 15.269802 50.638496 2696.899647 9.460942 -2.582374 -0.698599 0.806100 5.350891 3.803397 -17.216518 6.032885 0.000003 -0.000000 4.409102 -4.549523 -2.367154 -0.771218 0.000001 -0.000001 10.248313 2.763044 -38.619884 -3.025468 0.000000 0.000010 2.173893 -1.586960 -14.798182 -1.429139 2.100599 -0.520899 6.016101 7.417211 -1.416694 -24.138802 5.536695 0.000002 -0.000009 219.055641 -22.664463 -185.999083 -0.000001 -0.000000 -12.362107 405.898308 -179.833758 181.160468 -0.000003 0.000002 -10.273206 2466.172142 191.244259 -185.767936 -2.899504 -1.655899 6.981708 -6.327477 1.049076 35.731943 -4.387506 -0.000001 -0.000008 -556.477423 -380.360831 201.777544 -0.000001 0.000001 -10.858102 178.217353 -179.399413 183.078795 0.000000 0.000002 -12.079597 359.918048 -11.245183 -15.138508 2.190799 0.073899 -2.522508 -528.278249 -166.178762 -178.690152 -0.000001 -0.000004 -20.305004 -729.905652 23.990467 5.253995 0.000005 -0.000005 -16.771706 1452.751621 49.824307 28.980540 -2.029499 0.054298 -2.705215 -362.827380 -9.524826 8.829816 0.000004 -0.000002 -20.030403 149.297567 162.819948 176.791783 -0.000001 -0.000000 -17.032698 27.511732 65.902112 -14.904656
22.842896 15.218199 50.620293 2696.921504 9.400550 -2.509992 -0.698600 0.806099 5.350909 3.735544 -16.884159 5.988475 0.000003 -0.000002 4.409096 -4.511862 -2.414190 -0.767298 -0.000000 0.000001 10.248312 2.684026 -38.475002 -3.107639 -0.000002 -0.000000 2.173896 -1.497347 -14.776290 -1.339612 2.100600 -0.520900 6.016109 7.589624 -1.498034 -23.867143 5.536700 0.000004 -0.000008 219.155376 -22.690220 -185.650825 -0.000003 -0.000001 -12.362101 406.130315 -179.924108 181.034410 -0.000004 0.000001 -10.273193 2466.087557 191.459792 -185.904813 -2.899499 -1.655900 6.981705 -6.370500 0.957318 35.509897 -4.387493 0.000001 -0.000012 -556.413110 -380.331188 201.606052 0.000002 0.000002 -10.858095 178.106417 -179.344006 183.019440 0.000001 0.000001 -12.079597 360.182376 -11.247062 -14.929593 2.190799 0.073900 -2.522495 -528.478292 -166.175046 -178.783179 -0.000001 -0.000003 -20.304998 -729.742219 24.022412 5.206561 0.000004 -0.000005 -16.771704 1452.649223 49.672247 29.160509 -2.029502 0.054298 -2.705204 -362.831834 -9.604566 8.755939 0.000003 0.000001 -20.030403 148.756821 162.632815 177.042943 -0.000001 -0.000001 -17.032700 28.282434 65.751636 -15.350913
22.849998 15.173800 50.606991 2696.776376 9.509017 -2.407253 -0.698599 0.806099 5.350896 3.850789 -16.807692 5.916933 0.000002 0.000002 4.409105 -4.568771 -2.371509 -0.766967 -0.000000 0.000003 10.248302 2.747250 -38.299193 -3.116014 -0.000001 -0.000003 2.173902 -1.438206 -14.751026 -1.283477 2.100596 -0.520899 6.016112 7.829850 -1.865742 -23.791487 5.536703 0.000003 -0.000005 219.128369 -23.025324 -185.326678 -0.000003 -0.000001 -12.362098 406.322763 -180.026820 180.941629 -0.000002 0.000000 -10.273207 2465.998600 191.393266 -185.771720 -2.899501 -1.655899 6.981712 -6.089637 1.076890 35.824899 -4.387500 -0.000001 -0.000000 -556.913790 -380.551585 201.802679 0.000001 -0.000002 -10.858095 177.286029 -179.249996 182.975877 0.000000 -0.000004 -12.079604 360.698492 -11.090082 -14.786648 2.190800 0.073898 -2.522498 -528.235356 -165.982367 -178.812413 -0.000004 -0.000003 -20.304998 -729.849207 24.115542 5.206288 0.000005 -0.000006 -16.771706 1452.587915 49.522778 29.226468 -2.029501 0.054298 -2.705206 -365.576532 -10.346246 8.160174 0.000005 -0.000003 -20.030401 151.330259 162.480665 177.189587 -0.000003 0.000000 -17.032694 28.734319 65.714459 -15.640800
22.853298 15.137199 50.593990 2696.528741 9.659733 -2.351915 -0.698602 0.806097 5.350903 4.091121 -16.817350 5.927452 0.000002 -0.000000 4.409098 -4.598062 -2.286883 -0.756335 -0.000003 -0.000002 10.248302 2.765728 -38.116960 -3.162759 -0.000002 0.000001 2.173899 -1.357872 -14.757775 -1.203543 2.100597 -0.520902 6.016103 7.917302 -2.012333 -23.663085 5.536698 0.000001 0.000002 219.351634 -23.217019 -185.017230 -0.000002 -0.000000 -12.362095 406.572802 -180.098701 180.874146 -0.000003 0.000000 -10.273211 2465.846478 191.447744 -185.798112 -2.899501 -1.655902 6.981704 -5.853393 1.142426 36.177442 -4.387505 0.000001 0.000000 -557.218526 -380.814383 202.084930 0.000000 -0.000003 -10.858102 176.742469 -179.139510 182.922028 -0.000003 -0.000004 -12.079609 360.929954 -10.988375 -14.744999 2.190798 0.073896 -2.522500 -527.752434 -165.725470 -178.740477 0.000001 -0.000004 -20.304996 -730.072964 24.296298 5.217472 0.000003 -0.000006 -16.771704 1452.609662 49.412129 29.055891 -2.029500 0.054297 -2.705203 -365.593115 -10.553488 8.108547 0.000002 -0.000004 -20.030407 151.161471 162.524256 177.201321 -0.000001 -0.000002 -17.032701 29.217623 65.806216 -15.760224
